<mxfile host="app.diagrams.net" modified="2022-12-12T07:44:49.725Z" agent="5.0 (Macintosh; Intel Mac OS X 10_15_7) AppleWebKit/537.36 (KHTML, like Gecko) Chrome/108.0.0.0 Safari/537.36" version="20.6.2" etag="NQ-BqvptAHLpCOCvlWDp" type="github">
  <diagram id="Fca3ywSuGQ5VJgDzfbR-" name="第 1 页">
    <mxGraphModel dx="1186" dy="511" grid="1" gridSize="10" guides="1" tooltips="1" connect="1" arrows="1" fold="1" page="1" pageScale="1" pageWidth="827" pageHeight="1169" math="0" shadow="0">
      <root>
        <mxCell id="0" />
        <mxCell id="1" parent="0" />
        <mxCell id="42eqheZmhGi0w7P0Det9-1" value="&lt;b&gt;&lt;font style=&quot;font-size: 18px;&quot;&gt;绑定快递信息&lt;/font&gt;&lt;/b&gt;" style="text;html=1;strokeColor=none;fillColor=none;align=left;verticalAlign=middle;whiteSpace=wrap;rounded=0;" vertex="1" parent="1">
          <mxGeometry x="30" y="40" width="110" height="30" as="geometry" />
        </mxCell>
        <mxCell id="42eqheZmhGi0w7P0Det9-16" value="" style="sketch=0;pointerEvents=1;shadow=0;dashed=0;html=1;strokeColor=none;labelPosition=center;verticalLabelPosition=bottom;verticalAlign=top;align=center;fillColor=#505050;shape=mxgraph.mscae.intune.terms_and_conditions;fontSize=14;" vertex="1" parent="1">
          <mxGeometry x="750" y="179" width="37" height="50" as="geometry" />
        </mxCell>
        <mxCell id="42eqheZmhGi0w7P0Det9-40" style="edgeStyle=orthogonalEdgeStyle;rounded=0;orthogonalLoop=1;jettySize=auto;html=1;entryX=-0.052;entryY=0.515;entryDx=0;entryDy=0;entryPerimeter=0;fontSize=14;" edge="1" parent="1" source="42eqheZmhGi0w7P0Det9-17" target="42eqheZmhGi0w7P0Det9-20">
          <mxGeometry relative="1" as="geometry" />
        </mxCell>
        <mxCell id="42eqheZmhGi0w7P0Det9-41" value="确认快递信息" style="edgeLabel;html=1;align=center;verticalAlign=middle;resizable=0;points=[];fontSize=14;" vertex="1" connectable="0" parent="42eqheZmhGi0w7P0Det9-40">
          <mxGeometry x="-0.1385" y="2" relative="1" as="geometry">
            <mxPoint y="2" as="offset" />
          </mxGeometry>
        </mxCell>
        <mxCell id="42eqheZmhGi0w7P0Det9-17" value="" style="sketch=0;pointerEvents=1;shadow=0;dashed=0;html=1;strokeColor=none;labelPosition=center;verticalLabelPosition=bottom;verticalAlign=top;align=center;fillColor=#505050;shape=mxgraph.mscae.oms.assessments;fontSize=14;" vertex="1" parent="1">
          <mxGeometry x="190" y="179" width="47" height="50" as="geometry" />
        </mxCell>
        <mxCell id="42eqheZmhGi0w7P0Det9-35" style="edgeStyle=orthogonalEdgeStyle;rounded=0;orthogonalLoop=1;jettySize=auto;html=1;entryX=0.5;entryY=0;entryDx=0;entryDy=0;entryPerimeter=0;fontSize=14;" edge="1" parent="1" source="42eqheZmhGi0w7P0Det9-18" target="42eqheZmhGi0w7P0Det9-17">
          <mxGeometry relative="1" as="geometry" />
        </mxCell>
        <mxCell id="42eqheZmhGi0w7P0Det9-36" value="线上下单" style="edgeLabel;html=1;align=center;verticalAlign=middle;resizable=0;points=[];fontSize=14;" vertex="1" connectable="0" parent="42eqheZmhGi0w7P0Det9-35">
          <mxGeometry x="-0.2966" y="-1" relative="1" as="geometry">
            <mxPoint y="-1" as="offset" />
          </mxGeometry>
        </mxCell>
        <mxCell id="42eqheZmhGi0w7P0Det9-18" value="" style="sketch=0;pointerEvents=1;shadow=0;dashed=0;html=1;strokeColor=none;labelPosition=center;verticalLabelPosition=bottom;verticalAlign=top;align=center;fillColor=#505050;shape=mxgraph.mscae.oms.dependency_monitor;fontSize=14;" vertex="1" parent="1">
          <mxGeometry x="40" y="110" width="50" height="49" as="geometry" />
        </mxCell>
        <mxCell id="42eqheZmhGi0w7P0Det9-42" style="edgeStyle=orthogonalEdgeStyle;rounded=0;orthogonalLoop=1;jettySize=auto;html=1;entryX=0;entryY=0.5;entryDx=0;entryDy=0;entryPerimeter=0;fontSize=14;" edge="1" parent="1" source="42eqheZmhGi0w7P0Det9-20" target="42eqheZmhGi0w7P0Det9-21">
          <mxGeometry relative="1" as="geometry" />
        </mxCell>
        <mxCell id="42eqheZmhGi0w7P0Det9-43" value="通过快递把枪触碰tag" style="edgeLabel;html=1;align=center;verticalAlign=middle;resizable=0;points=[];fontSize=14;" vertex="1" connectable="0" parent="42eqheZmhGi0w7P0Det9-42">
          <mxGeometry x="-0.1618" y="-1" relative="1" as="geometry">
            <mxPoint x="8" y="-1" as="offset" />
          </mxGeometry>
        </mxCell>
        <mxCell id="42eqheZmhGi0w7P0Det9-20" value="" style="sketch=0;pointerEvents=1;shadow=0;dashed=0;html=1;strokeColor=none;labelPosition=center;verticalLabelPosition=bottom;verticalAlign=top;align=center;fillColor=#505050;shape=mxgraph.mscae.intune.device_history;fontSize=14;" vertex="1" parent="1">
          <mxGeometry x="369" y="179" width="45" height="50" as="geometry" />
        </mxCell>
        <mxCell id="42eqheZmhGi0w7P0Det9-45" style="edgeStyle=orthogonalEdgeStyle;rounded=0;orthogonalLoop=1;jettySize=auto;html=1;entryX=0;entryY=0.5;entryDx=0;entryDy=0;entryPerimeter=0;fontSize=14;" edge="1" parent="1" source="42eqheZmhGi0w7P0Det9-21" target="42eqheZmhGi0w7P0Det9-16">
          <mxGeometry relative="1" as="geometry" />
        </mxCell>
        <mxCell id="42eqheZmhGi0w7P0Det9-46" value="确认完成" style="edgeLabel;html=1;align=center;verticalAlign=middle;resizable=0;points=[];fontSize=14;" vertex="1" connectable="0" parent="42eqheZmhGi0w7P0Det9-45">
          <mxGeometry x="0.2358" y="1" relative="1" as="geometry">
            <mxPoint x="-9" y="1" as="offset" />
          </mxGeometry>
        </mxCell>
        <mxCell id="42eqheZmhGi0w7P0Det9-21" value="" style="sketch=0;pointerEvents=1;shadow=0;dashed=0;html=1;strokeColor=none;labelPosition=center;verticalLabelPosition=bottom;verticalAlign=top;align=center;fillColor=#505050;shape=mxgraph.mscae.intune.intune_wifi_profiles;fontSize=14;" vertex="1" parent="1">
          <mxGeometry x="600" y="179" width="43" height="50" as="geometry" />
        </mxCell>
        <mxCell id="42eqheZmhGi0w7P0Det9-33" style="edgeStyle=orthogonalEdgeStyle;rounded=0;orthogonalLoop=1;jettySize=auto;html=1;entryX=0.5;entryY=1;entryDx=0;entryDy=0;entryPerimeter=0;fontSize=14;" edge="1" parent="1" source="42eqheZmhGi0w7P0Det9-31" target="42eqheZmhGi0w7P0Det9-17">
          <mxGeometry relative="1" as="geometry" />
        </mxCell>
        <mxCell id="42eqheZmhGi0w7P0Det9-37" value="线下下单" style="edgeLabel;html=1;align=center;verticalAlign=middle;resizable=0;points=[];fontSize=14;" vertex="1" connectable="0" parent="42eqheZmhGi0w7P0Det9-33">
          <mxGeometry x="-0.3491" y="-2" relative="1" as="geometry">
            <mxPoint x="8" y="-2" as="offset" />
          </mxGeometry>
        </mxCell>
        <mxCell id="42eqheZmhGi0w7P0Det9-31" value="" style="sketch=0;pointerEvents=1;shadow=0;dashed=0;html=1;strokeColor=none;labelPosition=center;verticalLabelPosition=bottom;verticalAlign=top;align=center;fillColor=#505050;shape=mxgraph.mscae.intune.subscription_portal;fontSize=14;" vertex="1" parent="1">
          <mxGeometry x="40" y="239" width="50" height="50" as="geometry" />
        </mxCell>
        <mxCell id="42eqheZmhGi0w7P0Det9-47" value="&lt;span style=&quot;font-size: 18px;&quot;&gt;&lt;b&gt;转运&lt;/b&gt;&lt;/span&gt;" style="text;html=1;strokeColor=none;fillColor=none;align=left;verticalAlign=middle;whiteSpace=wrap;rounded=0;" vertex="1" parent="1">
          <mxGeometry x="30" y="390" width="140" height="30" as="geometry" />
        </mxCell>
        <mxCell id="42eqheZmhGi0w7P0Det9-56" style="edgeStyle=orthogonalEdgeStyle;rounded=0;orthogonalLoop=1;jettySize=auto;html=1;entryX=0;entryY=0.5;entryDx=0;entryDy=0;entryPerimeter=0;fontSize=14;" edge="1" parent="1" source="42eqheZmhGi0w7P0Det9-58" target="42eqheZmhGi0w7P0Det9-59">
          <mxGeometry relative="1" as="geometry" />
        </mxCell>
        <mxCell id="42eqheZmhGi0w7P0Det9-57" value="通过快递把枪触碰tag" style="edgeLabel;html=1;align=center;verticalAlign=middle;resizable=0;points=[];fontSize=14;" vertex="1" connectable="0" parent="42eqheZmhGi0w7P0Det9-56">
          <mxGeometry x="-0.1618" y="-1" relative="1" as="geometry">
            <mxPoint x="8" y="-1" as="offset" />
          </mxGeometry>
        </mxCell>
        <mxCell id="42eqheZmhGi0w7P0Det9-58" value="" style="sketch=0;pointerEvents=1;shadow=0;dashed=0;html=1;strokeColor=none;labelPosition=center;verticalLabelPosition=bottom;verticalAlign=top;align=center;fillColor=#505050;shape=mxgraph.mscae.intune.device_history;fontSize=14;" vertex="1" parent="1">
          <mxGeometry x="30" y="730" width="45" height="50" as="geometry" />
        </mxCell>
        <mxCell id="42eqheZmhGi0w7P0Det9-89" value="" style="edgeStyle=orthogonalEdgeStyle;rounded=0;orthogonalLoop=1;jettySize=auto;html=1;fontSize=14;" edge="1" parent="1" source="42eqheZmhGi0w7P0Det9-59" target="42eqheZmhGi0w7P0Det9-73">
          <mxGeometry relative="1" as="geometry" />
        </mxCell>
        <mxCell id="42eqheZmhGi0w7P0Det9-90" value="派送" style="edgeLabel;html=1;align=center;verticalAlign=middle;resizable=0;points=[];fontSize=14;" vertex="1" connectable="0" parent="42eqheZmhGi0w7P0Det9-89">
          <mxGeometry x="-0.0158" y="3" relative="1" as="geometry">
            <mxPoint y="3" as="offset" />
          </mxGeometry>
        </mxCell>
        <mxCell id="42eqheZmhGi0w7P0Det9-59" value="" style="sketch=0;pointerEvents=1;shadow=0;dashed=0;html=1;strokeColor=none;labelPosition=center;verticalLabelPosition=bottom;verticalAlign=top;align=center;fillColor=#505050;shape=mxgraph.mscae.intune.intune_wifi_profiles;fontSize=14;" vertex="1" parent="1">
          <mxGeometry x="240" y="730" width="43" height="50" as="geometry" />
        </mxCell>
        <mxCell id="42eqheZmhGi0w7P0Det9-60" value="&lt;span style=&quot;font-size: 18px;&quot;&gt;&lt;b&gt;派送&lt;/b&gt;&lt;/span&gt;" style="text;html=1;strokeColor=none;fillColor=none;align=left;verticalAlign=middle;whiteSpace=wrap;rounded=0;" vertex="1" parent="1">
          <mxGeometry x="30" y="610" width="140" height="30" as="geometry" />
        </mxCell>
        <mxCell id="42eqheZmhGi0w7P0Det9-116" style="edgeStyle=orthogonalEdgeStyle;rounded=0;orthogonalLoop=1;jettySize=auto;html=1;fontSize=14;" edge="1" parent="1" source="42eqheZmhGi0w7P0Det9-66" target="42eqheZmhGi0w7P0Det9-115">
          <mxGeometry relative="1" as="geometry" />
        </mxCell>
        <mxCell id="42eqheZmhGi0w7P0Det9-119" value="通过快递柜自动回收快递tag" style="edgeLabel;html=1;align=center;verticalAlign=middle;resizable=0;points=[];fontSize=14;" vertex="1" connectable="0" parent="42eqheZmhGi0w7P0Det9-116">
          <mxGeometry x="-0.2885" y="1" relative="1" as="geometry">
            <mxPoint x="28" y="1" as="offset" />
          </mxGeometry>
        </mxCell>
        <mxCell id="42eqheZmhGi0w7P0Det9-66" value="" style="sketch=0;pointerEvents=1;shadow=0;dashed=0;html=1;strokeColor=none;labelPosition=center;verticalLabelPosition=bottom;verticalAlign=top;align=center;fillColor=#505050;shape=mxgraph.mscae.oms.log_management;fontSize=18;" vertex="1" parent="1">
          <mxGeometry x="397.5" y="660" width="41" height="50" as="geometry" />
        </mxCell>
        <mxCell id="42eqheZmhGi0w7P0Det9-107" style="edgeStyle=orthogonalEdgeStyle;rounded=0;orthogonalLoop=1;jettySize=auto;html=1;entryX=0;entryY=0.5;entryDx=0;entryDy=0;entryPerimeter=0;fontSize=14;" edge="1" parent="1" source="42eqheZmhGi0w7P0Det9-73" target="42eqheZmhGi0w7P0Det9-66">
          <mxGeometry relative="1" as="geometry" />
        </mxCell>
        <mxCell id="42eqheZmhGi0w7P0Det9-109" value="快递柜" style="edgeLabel;html=1;align=center;verticalAlign=middle;resizable=0;points=[];fontSize=14;" vertex="1" connectable="0" parent="42eqheZmhGi0w7P0Det9-107">
          <mxGeometry x="-0.1542" relative="1" as="geometry">
            <mxPoint as="offset" />
          </mxGeometry>
        </mxCell>
        <mxCell id="42eqheZmhGi0w7P0Det9-122" style="edgeStyle=orthogonalEdgeStyle;rounded=0;orthogonalLoop=1;jettySize=auto;html=1;entryX=0.05;entryY=0.5;entryDx=0;entryDy=0;entryPerimeter=0;fontSize=14;" edge="1" parent="1" source="42eqheZmhGi0w7P0Det9-73" target="42eqheZmhGi0w7P0Det9-76">
          <mxGeometry relative="1" as="geometry">
            <Array as="points">
              <mxPoint x="375" y="809" />
              <mxPoint x="400" y="809" />
            </Array>
          </mxGeometry>
        </mxCell>
        <mxCell id="42eqheZmhGi0w7P0Det9-123" value="客户" style="edgeLabel;html=1;align=center;verticalAlign=middle;resizable=0;points=[];fontSize=14;" vertex="1" connectable="0" parent="42eqheZmhGi0w7P0Det9-122">
          <mxGeometry x="-0.6109" y="-2" relative="1" as="geometry">
            <mxPoint as="offset" />
          </mxGeometry>
        </mxCell>
        <mxCell id="42eqheZmhGi0w7P0Det9-73" value="" style="sketch=0;pointerEvents=1;shadow=0;dashed=0;html=1;strokeColor=none;labelPosition=center;verticalLabelPosition=bottom;verticalAlign=top;align=center;fillColor=#505050;shape=mxgraph.mscae.intune.user_management;fontSize=18;" vertex="1" parent="1">
          <mxGeometry x="350" y="732" width="50" height="46" as="geometry" />
        </mxCell>
        <mxCell id="42eqheZmhGi0w7P0Det9-117" style="edgeStyle=orthogonalEdgeStyle;rounded=0;orthogonalLoop=1;jettySize=auto;html=1;entryX=0.5;entryY=0.97;entryDx=0;entryDy=0;entryPerimeter=0;fontSize=14;" edge="1" parent="1" source="42eqheZmhGi0w7P0Det9-76" target="42eqheZmhGi0w7P0Det9-115">
          <mxGeometry relative="1" as="geometry" />
        </mxCell>
        <mxCell id="42eqheZmhGi0w7P0Det9-118" value="快递员回收快递tag" style="edgeLabel;html=1;align=center;verticalAlign=middle;resizable=0;points=[];fontSize=14;" vertex="1" connectable="0" parent="42eqheZmhGi0w7P0Det9-117">
          <mxGeometry x="-0.3852" y="2" relative="1" as="geometry">
            <mxPoint x="19" y="2" as="offset" />
          </mxGeometry>
        </mxCell>
        <mxCell id="42eqheZmhGi0w7P0Det9-76" value="" style="sketch=0;pointerEvents=1;shadow=0;dashed=0;html=1;strokeColor=none;labelPosition=center;verticalLabelPosition=bottom;verticalAlign=top;align=center;fillColor=#505050;shape=mxgraph.mscae.intune.user_group;fontSize=18;" vertex="1" parent="1">
          <mxGeometry x="397.5" y="790" width="50" height="37" as="geometry" />
        </mxCell>
        <mxCell id="42eqheZmhGi0w7P0Det9-154" value="" style="edgeStyle=orthogonalEdgeStyle;rounded=0;orthogonalLoop=1;jettySize=auto;html=1;fontSize=14;" edge="1" parent="1" source="42eqheZmhGi0w7P0Det9-100" target="42eqheZmhGi0w7P0Det9-151">
          <mxGeometry relative="1" as="geometry" />
        </mxCell>
        <mxCell id="42eqheZmhGi0w7P0Det9-155" value="机械臂通过快递tag获取到快递体积&lt;br&gt;&lt;div style=&quot;text-align: left;&quot;&gt;通过算法自动排列到运输车上&lt;/div&gt;" style="edgeLabel;html=1;align=center;verticalAlign=middle;resizable=0;points=[];fontSize=14;" vertex="1" connectable="0" parent="42eqheZmhGi0w7P0Det9-154">
          <mxGeometry x="-0.1871" relative="1" as="geometry">
            <mxPoint as="offset" />
          </mxGeometry>
        </mxCell>
        <mxCell id="42eqheZmhGi0w7P0Det9-100" value="" style="sketch=0;pointerEvents=1;shadow=0;dashed=0;html=1;strokeColor=none;labelPosition=center;verticalLabelPosition=bottom;verticalAlign=top;align=center;fillColor=#505050;shape=mxgraph.mscae.intune.exchange_connector;fontSize=14;" vertex="1" parent="1">
          <mxGeometry x="273" y="471" width="50" height="49" as="geometry" />
        </mxCell>
        <mxCell id="42eqheZmhGi0w7P0Det9-144" value="解绑快递tag" style="edgeStyle=orthogonalEdgeStyle;rounded=0;orthogonalLoop=1;jettySize=auto;html=1;entryX=0.05;entryY=0.5;entryDx=0;entryDy=0;entryPerimeter=0;fontSize=14;" edge="1" parent="1" source="42eqheZmhGi0w7P0Det9-115" target="42eqheZmhGi0w7P0Det9-143">
          <mxGeometry relative="1" as="geometry" />
        </mxCell>
        <mxCell id="42eqheZmhGi0w7P0Det9-115" value="" style="sketch=0;pointerEvents=1;shadow=0;dashed=0;html=1;strokeColor=none;labelPosition=center;verticalLabelPosition=bottom;verticalAlign=top;align=center;fillColor=#505050;shape=mxgraph.mscae.intune.update;fontSize=14;" vertex="1" parent="1">
          <mxGeometry x="670" y="720" width="48" height="50" as="geometry" />
        </mxCell>
        <mxCell id="42eqheZmhGi0w7P0Det9-142" value="" style="sketch=0;pointerEvents=1;shadow=0;dashed=0;html=1;strokeColor=none;labelPosition=center;verticalLabelPosition=bottom;verticalAlign=top;align=center;fillColor=#505050;shape=mxgraph.mscae.intune.update;fontSize=14;" vertex="1" parent="1">
          <mxGeometry x="390" y="660" width="48" height="50" as="geometry" />
        </mxCell>
        <mxCell id="42eqheZmhGi0w7P0Det9-143" value="" style="sketch=0;pointerEvents=1;shadow=0;dashed=0;html=1;strokeColor=none;labelPosition=center;verticalLabelPosition=bottom;verticalAlign=top;align=center;fillColor=#505050;shape=mxgraph.mscae.intune.end_protection;fontSize=14;" vertex="1" parent="1">
          <mxGeometry x="860" y="720" width="48" height="50" as="geometry" />
        </mxCell>
        <mxCell id="42eqheZmhGi0w7P0Det9-149" value="" style="edgeStyle=orthogonalEdgeStyle;rounded=0;orthogonalLoop=1;jettySize=auto;html=1;fontSize=14;" edge="1" parent="1" source="42eqheZmhGi0w7P0Det9-145" target="42eqheZmhGi0w7P0Det9-100">
          <mxGeometry relative="1" as="geometry" />
        </mxCell>
        <mxCell id="42eqheZmhGi0w7P0Det9-150" value="扫描快递tag获取到&lt;br&gt;快递信息进行分拣" style="edgeLabel;html=1;align=left;verticalAlign=middle;resizable=0;points=[];fontSize=14;" vertex="1" connectable="0" parent="42eqheZmhGi0w7P0Det9-149">
          <mxGeometry x="-0.1539" relative="1" as="geometry">
            <mxPoint x="-48" as="offset" />
          </mxGeometry>
        </mxCell>
        <mxCell id="42eqheZmhGi0w7P0Det9-145" value="" style="sketch=0;pointerEvents=1;shadow=0;dashed=0;html=1;strokeColor=none;labelPosition=center;verticalLabelPosition=bottom;verticalAlign=top;align=center;fillColor=#505050;shape=mxgraph.mscae.intune.intune_wifi_profiles;fontSize=14;" vertex="1" parent="1">
          <mxGeometry x="30" y="470" width="43" height="50" as="geometry" />
        </mxCell>
        <mxCell id="42eqheZmhGi0w7P0Det9-151" value="" style="sketch=0;pointerEvents=1;shadow=0;dashed=0;html=1;strokeColor=none;labelPosition=center;verticalLabelPosition=bottom;verticalAlign=top;align=center;fillColor=#505050;shape=mxgraph.mscae.intune.administration;fontSize=14;" vertex="1" parent="1">
          <mxGeometry x="633" y="470" width="30" height="50" as="geometry" />
        </mxCell>
      </root>
    </mxGraphModel>
  </diagram>
</mxfile>
